<mxfile host="app.diagrams.net" modified="2024-07-10T15:24:00.030Z" agent="Mozilla/5.0 (Windows NT 10.0; Win64; x64) AppleWebKit/537.36 (KHTML, like Gecko) Chrome/126.0.0.0 Safari/537.36" etag="fObjJ31gTNzxxM6HQwLx" version="24.6.4" type="github">
  <diagram id="C5RBs43oDa-KdzZeNtuy" name="Page-1">
    <mxGraphModel dx="2068" dy="892" grid="1" gridSize="10" guides="1" tooltips="1" connect="1" arrows="1" fold="1" page="1" pageScale="1" pageWidth="827" pageHeight="1169" math="0" shadow="0">
      <root>
        <mxCell id="WIyWlLk6GJQsqaUBKTNV-0" />
        <mxCell id="WIyWlLk6GJQsqaUBKTNV-1" parent="WIyWlLk6GJQsqaUBKTNV-0" />
        <mxCell id="WIyWlLk6GJQsqaUBKTNV-2" value="" style="rounded=0;html=1;jettySize=auto;orthogonalLoop=1;fontSize=11;endArrow=block;endFill=0;endSize=8;strokeWidth=1;shadow=0;labelBackgroundColor=none;edgeStyle=orthogonalEdgeStyle;" parent="WIyWlLk6GJQsqaUBKTNV-1" source="WIyWlLk6GJQsqaUBKTNV-3" edge="1">
          <mxGeometry relative="1" as="geometry">
            <mxPoint x="220" y="170" as="targetPoint" />
          </mxGeometry>
        </mxCell>
        <mxCell id="WIyWlLk6GJQsqaUBKTNV-3" value="Start" style="rounded=1;whiteSpace=wrap;html=1;fontSize=12;glass=0;strokeWidth=1;shadow=0;" parent="WIyWlLk6GJQsqaUBKTNV-1" vertex="1">
          <mxGeometry x="160" y="80" width="120" height="40" as="geometry" />
        </mxCell>
        <mxCell id="XHb6EF1sIvQHW1oSUn8Q-0" value="Load Tickets in the&amp;nbsp;&lt;br&gt;local ticket scanning server&lt;br&gt;(Made with a raspberry pi)" style="shape=parallelogram;perimeter=parallelogramPerimeter;whiteSpace=wrap;html=1;fixedSize=1;" vertex="1" parent="WIyWlLk6GJQsqaUBKTNV-1">
          <mxGeometry x="127.5" y="170" width="185" height="110" as="geometry" />
        </mxCell>
        <mxCell id="XHb6EF1sIvQHW1oSUn8Q-1" value="" style="endArrow=classic;html=1;rounded=0;exitX=0.5;exitY=1;exitDx=0;exitDy=0;" edge="1" parent="WIyWlLk6GJQsqaUBKTNV-1" source="XHb6EF1sIvQHW1oSUn8Q-0">
          <mxGeometry width="50" height="50" relative="1" as="geometry">
            <mxPoint x="390" y="260" as="sourcePoint" />
            <mxPoint x="220" y="340" as="targetPoint" />
          </mxGeometry>
        </mxCell>
        <mxCell id="XHb6EF1sIvQHW1oSUn8Q-2" value="Connect server to a local area &lt;br&gt;network (Mi-Fi for instance)" style="shape=parallelogram;perimeter=parallelogramPerimeter;whiteSpace=wrap;html=1;fixedSize=1;" vertex="1" parent="WIyWlLk6GJQsqaUBKTNV-1">
          <mxGeometry x="110" y="340" width="210" height="100" as="geometry" />
        </mxCell>
        <mxCell id="XHb6EF1sIvQHW1oSUn8Q-3" value="connect ticket scanning&amp;nbsp;&lt;br&gt;devices to the local area &lt;br&gt;network to access the local &lt;br&gt;server" style="shape=parallelogram;perimeter=parallelogramPerimeter;whiteSpace=wrap;html=1;fixedSize=1;" vertex="1" parent="WIyWlLk6GJQsqaUBKTNV-1">
          <mxGeometry x="110" y="500" width="190" height="90" as="geometry" />
        </mxCell>
        <mxCell id="XHb6EF1sIvQHW1oSUn8Q-4" value="" style="endArrow=classic;html=1;rounded=0;entryX=0.547;entryY=-0.007;entryDx=0;entryDy=0;exitX=0.5;exitY=1;exitDx=0;exitDy=0;entryPerimeter=0;" edge="1" parent="WIyWlLk6GJQsqaUBKTNV-1" source="XHb6EF1sIvQHW1oSUn8Q-2" target="XHb6EF1sIvQHW1oSUn8Q-3">
          <mxGeometry width="50" height="50" relative="1" as="geometry">
            <mxPoint x="180" y="490" as="sourcePoint" />
            <mxPoint x="230" y="440" as="targetPoint" />
          </mxGeometry>
        </mxCell>
        <mxCell id="XHb6EF1sIvQHW1oSUn8Q-5" value="Scan tickets" style="shape=parallelogram;perimeter=parallelogramPerimeter;whiteSpace=wrap;html=1;fixedSize=1;" vertex="1" parent="WIyWlLk6GJQsqaUBKTNV-1">
          <mxGeometry x="110" y="660" width="210" height="100" as="geometry" />
        </mxCell>
        <mxCell id="XHb6EF1sIvQHW1oSUn8Q-6" value="" style="endArrow=classic;html=1;rounded=0;entryX=0.5;entryY=0;entryDx=0;entryDy=0;exitX=0.551;exitY=0.963;exitDx=0;exitDy=0;exitPerimeter=0;" edge="1" parent="WIyWlLk6GJQsqaUBKTNV-1" source="XHb6EF1sIvQHW1oSUn8Q-3" target="XHb6EF1sIvQHW1oSUn8Q-5">
          <mxGeometry width="50" height="50" relative="1" as="geometry">
            <mxPoint x="390" y="580" as="sourcePoint" />
            <mxPoint x="440" y="530" as="targetPoint" />
          </mxGeometry>
        </mxCell>
        <mxCell id="XHb6EF1sIvQHW1oSUn8Q-7" value="End" style="ellipse;whiteSpace=wrap;html=1;" vertex="1" parent="WIyWlLk6GJQsqaUBKTNV-1">
          <mxGeometry x="155" y="830" width="120" height="80" as="geometry" />
        </mxCell>
        <mxCell id="XHb6EF1sIvQHW1oSUn8Q-8" value="" style="endArrow=classic;html=1;rounded=0;entryX=0.5;entryY=0;entryDx=0;entryDy=0;exitX=0.5;exitY=1;exitDx=0;exitDy=0;" edge="1" parent="WIyWlLk6GJQsqaUBKTNV-1" source="XHb6EF1sIvQHW1oSUn8Q-5" target="XHb6EF1sIvQHW1oSUn8Q-7">
          <mxGeometry width="50" height="50" relative="1" as="geometry">
            <mxPoint x="170" y="820" as="sourcePoint" />
            <mxPoint x="220" y="770" as="targetPoint" />
          </mxGeometry>
        </mxCell>
        <mxCell id="XHb6EF1sIvQHW1oSUn8Q-9" value="A special distributed app will be created and&lt;br&gt;deployed to several raspberry pi&#39;s in this instance. The apps will store the purchased tickets to a specific event.&amp;nbsp;" style="text;html=1;align=center;verticalAlign=middle;whiteSpace=wrap;rounded=0;" vertex="1" parent="WIyWlLk6GJQsqaUBKTNV-1">
          <mxGeometry x="390" y="140" width="260" height="140" as="geometry" />
        </mxCell>
        <mxCell id="XHb6EF1sIvQHW1oSUn8Q-11" value="The server holding the tickets has to be connected to a secure local network." style="text;html=1;align=center;verticalAlign=middle;whiteSpace=wrap;rounded=0;" vertex="1" parent="WIyWlLk6GJQsqaUBKTNV-1">
          <mxGeometry x="420" y="320" width="190" height="120" as="geometry" />
        </mxCell>
        <mxCell id="XHb6EF1sIvQHW1oSUn8Q-13" value="Connect the ticket scanning devices (Phones) to the same local area network as the server. This will allow the devices to access data from the local server." style="text;html=1;align=center;verticalAlign=middle;whiteSpace=wrap;rounded=0;" vertex="1" parent="WIyWlLk6GJQsqaUBKTNV-1">
          <mxGeometry x="420" y="490" width="190" height="110" as="geometry" />
        </mxCell>
      </root>
    </mxGraphModel>
  </diagram>
</mxfile>
